<svg width="53" height="53" viewBox="0 0 53 53" fill="none" xmlns="http://www.w3.org/2000/svg">
<path d="M11.5383 39.9692C13.4974 39.9692 15.0981 38.3535 15.0981 36.3759V13.2246H35.8831V36.3759C35.8831 38.3535 34.2824 39.9692 32.3234 39.9692" fill="#55558A"/>
<path d="M28.7636 36.3755V33.6504H7.97852V36.3755C7.97852 38.353 9.5792 39.9688 11.5383 39.9688H32.3233C30.3642 39.9688 28.7636 38.353 28.7636 36.3755Z" fill="#141458"/>
<path d="M20.8981 17.8311H19.4037C19.0841 17.8311 18.825 18.0902 18.825 18.4098C18.825 18.7295 19.0841 18.9886 19.4037 18.9886H20.8981C21.2177 18.9886 21.4768 18.7295 21.4768 18.4098C21.4768 18.0902 21.2177 17.8311 20.8981 17.8311Z" fill="#F7C604"/>
<path d="M31.0995 17.8311H24.1103C23.7906 17.8311 23.5315 18.0902 23.5315 18.4098C23.5315 18.7295 23.7906 18.9886 24.1103 18.9886H31.0995C31.4191 18.9886 31.6783 18.7295 31.6783 18.4098C31.6783 18.0902 31.4191 17.8311 31.0995 17.8311Z" fill="#F3F2F7"/>
<path d="M20.8981 21.9307H19.4037C19.0841 21.9307 18.825 22.1898 18.825 22.5094C18.825 22.8291 19.0841 23.0882 19.4037 23.0882H20.8981C21.2177 23.0882 21.4768 22.8291 21.4768 22.5094C21.4768 22.1898 21.2177 21.9307 20.8981 21.9307Z" fill="#F7C604"/>
<path d="M31.6783 21.9307H23.5315V23.0882H31.6783V21.9307Z" fill="#F3F2F7"/>
<path d="M20.8981 26.0303H19.4037C19.0841 26.0303 18.825 26.2894 18.825 26.6091C18.825 26.9287 19.0841 27.1878 19.4037 27.1878H20.8981C21.2177 27.1878 21.4768 26.9287 21.4768 26.6091C21.4768 26.2894 21.2177 26.0303 20.8981 26.0303Z" fill="#F7C604"/>
<path d="M31.6783 26.0303H23.5315V27.1878H31.6783V26.0303Z" fill="#F3F2F7"/>
<path d="M20.8981 30.1299H19.4037C19.0841 30.1299 18.825 30.389 18.825 30.7087C18.825 31.0283 19.0841 31.2875 19.4037 31.2875H20.8981C21.2177 31.2875 21.4768 31.0283 21.4768 30.7087C21.4768 30.389 21.2177 30.1299 20.8981 30.1299Z" fill="#F7C604"/>
<path d="M31.0995 30.1299H24.1103C23.7906 30.1299 23.5315 30.389 23.5315 30.7087C23.5315 31.0283 23.7906 31.2875 24.1103 31.2875H31.0995C31.4191 31.2875 31.6783 31.0283 31.6783 30.7087C31.6783 30.389 31.4191 30.1299 31.0995 30.1299Z" fill="#F3F2F7"/>
<path opacity="0.1" d="M35.8831 30.323V16.5528C35.5965 16.5046 35.2859 16.4805 34.9753 16.4805C31.1766 16.4805 28.0947 19.5914 28.0947 23.4259C28.0947 27.2603 31.1766 30.3713 34.9753 30.3713C35.2859 30.3954 35.5965 30.3713 35.8831 30.323Z" fill="#0C1E5B"/>
<path d="M37.3887 28.9964C41.1888 28.9964 44.2693 25.8868 44.2693 22.0509C44.2693 18.2151 41.1888 15.1055 37.3887 15.1055C33.5886 15.1055 30.5081 18.2151 30.5081 22.0509C30.5081 25.8868 33.5886 28.9964 37.3887 28.9964Z" fill="#FF5B5B"/>
<path d="M40.0896 19.2188L34.4729 24.8814M34.4729 19.2188L40.0896 24.8814" stroke="white" stroke-width="2"/>
<path d="M40.0896 19.2188L34.4729 24.8814M34.4729 19.2188L40.0896 24.8814" stroke="white" stroke-width="2"/>
</svg>
