<svg width="55" height="57" viewBox="0 0 55 57" fill="none" xmlns="http://www.w3.org/2000/svg">
<path d="M23.467 13.7119L8.25635 19.9864L23.467 26.261L38.6776 19.9864L23.467 13.7119Z" fill="#55558A"/>
<path d="M17.2933 16.2715L14.4304 17.426L29.641 23.7256L32.479 22.546L17.2933 16.2715Z" fill="#F7C604"/>
<path d="M8.25635 19.9863V37.2789L23.467 43.5535V26.2609L8.25635 19.9863Z" fill="#2D2D5E"/>
<path d="M38.6777 19.9863V37.2789L23.467 43.5535V26.2609L38.6777 19.9863Z" fill="#55558A"/>
<path opacity="0.1" d="M38.6777 28.8205C38.2296 28.7201 37.7815 28.6699 37.3085 28.6699C33.6241 28.6699 30.6367 31.6817 30.6367 35.3962C30.6367 37.128 31.284 38.7092 32.3544 39.8888L38.6777 37.2786V28.8205Z" fill="#0C1E5B"/>
<path d="M29.6409 23.7255V30.9789L32.4789 29.7993V22.5459L29.6409 23.7255Z" fill="#F7C604"/>
<path d="M40.0219 41.6206C43.7066 41.6206 46.6936 38.6091 46.6936 34.8943C46.6936 31.1794 43.7066 28.168 40.0219 28.168C36.3371 28.168 33.3501 31.1794 33.3501 34.8943C33.3501 38.6091 36.3371 41.6206 40.0219 41.6206Z" fill="#FF5B5B"/>
<path d="M39.325 37.5047C39.1259 37.5047 38.9516 37.4294 38.8023 37.2788L36.6862 35.1455C36.3875 34.8443 36.3875 34.3674 36.6862 34.0913C36.9849 33.7902 37.4579 33.7902 37.7318 34.0913L39.325 35.6976L42.3124 32.6858C42.6111 32.3847 43.0841 32.3847 43.358 32.6858C43.6567 32.987 43.6567 33.4639 43.358 33.74L39.8478 37.2788C39.6985 37.4294 39.5242 37.5047 39.325 37.5047Z" fill="white"/>
<path d="M13.1855 34.9446L11.5425 31.5312L9.99902 33.5642L10.8454 33.9407V36.1493L12.2146 36.7768V34.543L13.1855 34.9446Z" fill="#F2F5F3"/>
</svg>
