<svg width="13" height="12" viewBox="0 0 13 12" fill="none" xmlns="http://www.w3.org/2000/svg">
<rect x="12.2778" y="11.5" width="11" height="11" rx="5.5" transform="rotate(-180 12.2778 11.5)" fill="#FF5B5B" fill-opacity="0.15" stroke="#FE8D8B"/>
<g clip-path="url(#clip0_1530_3064)">
<path d="M5.29285 6.6018L6.52814 7.83709C6.59433 7.90326 6.68409 7.94043 6.77767 7.94043C6.87126 7.94043 6.96102 7.90326 7.0272 7.83709L8.2625 6.6018C8.32679 6.53523 8.36236 6.44608 8.36156 6.35354C8.36075 6.261 8.32364 6.17248 8.2582 6.10704C8.19276 6.0416 8.10424 6.00448 8.0117 6.00368C7.91916 6.00287 7.83 6.03845 7.76344 6.10274L7.13062 6.73556L7.13062 4.41109C7.13062 4.31749 7.09343 4.22772 7.02724 4.16153C6.96105 4.09534 6.87128 4.05815 6.77767 4.05815C6.68407 4.05815 6.5943 4.09534 6.52811 4.16153C6.46192 4.22772 6.42473 4.31749 6.42473 4.41109L6.42473 6.73556L5.79191 6.10274C5.72534 6.03845 5.63619 6.00287 5.54365 6.00368C5.45111 6.00448 5.36259 6.0416 5.29715 6.10704C5.23171 6.17248 5.19459 6.261 5.19379 6.35354C5.19298 6.44608 5.22856 6.53523 5.29285 6.6018Z" fill="#FF5B5B"/>
</g>
<defs>
<clipPath id="clip0_1530_3064">
<rect width="4.23529" height="4.23529" fill="white" transform="translate(8.89551 8.11719) rotate(-180)"/>
</clipPath>
</defs>
</svg>
