<svg width="38" height="28" viewBox="0 0 38 28" fill="none" xmlns="http://www.w3.org/2000/svg">
<path d="M4.12817 27.3126C6.10957 27.3126 7.72851 25.715 7.72851 23.7598V0.869141H28.7506V23.7598C28.7506 25.715 27.1316 27.3126 25.1502 27.3126" fill="#2D2D5E"/>
<path d="M21.5499 23.7598V21.0654H0.527832V23.7598C0.527832 25.7151 2.14678 27.3127 4.12817 27.3127H25.1502C23.1688 27.3127 21.5499 25.7151 21.5499 23.7598Z" fill="#141458"/>
<path d="M13.6079 5.42285H12.0703C11.7543 5.42285 11.498 5.67906 11.498 5.99512C11.498 6.31117 11.7543 6.56738 12.0703 6.56738H13.6079C13.924 6.56738 14.1802 6.31117 14.1802 5.99512C14.1802 5.67906 13.924 5.42285 13.6079 5.42285Z" fill="white"/>
<path d="M23.9255 5.42285H16.8303C16.5143 5.42285 16.2581 5.67906 16.2581 5.99512C16.2581 6.31117 16.5143 6.56738 16.8303 6.56738H23.9255C24.2415 6.56738 24.4977 6.31117 24.4977 5.99512C24.4977 5.67906 24.2415 5.42285 23.9255 5.42285Z" fill="#FEF2E4"/>
<path d="M13.6079 9.47656H12.0703C11.7543 9.47656 11.498 9.73277 11.498 10.0488C11.498 10.3649 11.7543 10.6211 12.0703 10.6211H13.6079C13.924 10.6211 14.1802 10.3649 14.1802 10.0488C14.1802 9.73277 13.924 9.47656 13.6079 9.47656Z" fill="white"/>
<path d="M23.9255 9.47656H16.8303C16.5143 9.47656 16.2581 9.73277 16.2581 10.0488C16.2581 10.3649 16.5143 10.6211 16.8303 10.6211H23.9255C24.2415 10.6211 24.4977 10.3649 24.4977 10.0488C24.4977 9.73277 24.2415 9.47656 23.9255 9.47656Z" fill="#FEF2E4"/>
<path d="M13.6079 13.5303H12.0703C11.7543 13.5303 11.498 13.7865 11.498 14.1025C11.498 14.4186 11.7543 14.6748 12.0703 14.6748H13.6079C13.924 14.6748 14.1802 14.4186 14.1802 14.1025C14.1802 13.7865 13.924 13.5303 13.6079 13.5303Z" fill="white"/>
<path d="M23.9255 13.5303H16.8303C16.5143 13.5303 16.2581 13.7865 16.2581 14.1025C16.2581 14.4186 16.5143 14.6748 16.8303 14.6748H23.9255C24.2415 14.6748 24.4977 14.4186 24.4977 14.1025C24.4977 13.7865 24.2415 13.5303 23.9255 13.5303Z" fill="#FEF2E4"/>
<path d="M13.6079 17.584H12.0703C11.7543 17.584 11.498 17.8402 11.498 18.1563C11.498 18.4723 11.7543 18.7285 12.0703 18.7285H13.6079C13.924 18.7285 14.1802 18.4723 14.1802 18.1563C14.1802 17.8402 13.924 17.584 13.6079 17.584Z" fill="white"/>
<path d="M23.9255 17.584H16.8303C16.5143 17.584 16.2581 17.8402 16.2581 18.1563C16.2581 18.4723 16.5143 18.7285 16.8303 18.7285H23.9255C24.2415 18.7285 24.4977 18.4723 24.4977 18.1563C24.4977 17.8402 24.2415 17.584 23.9255 17.584Z" fill="#FEF2E4"/>
<path opacity="0.1" d="M28.7506 17.7746V4.15942C28.469 4.11173 28.1639 4.08789 27.8588 4.08789C24.1276 4.08789 21.1003 7.16382 21.1003 10.9551C21.1003 14.7463 24.1276 17.8223 27.8588 17.8223C28.1639 17.8461 28.469 17.8223 28.7506 17.7746Z" fill="#0C1E5B"/>
<path d="M30.2733 16.463C34.1167 16.463 37.2324 13.3885 37.2324 9.59577C37.2324 5.80309 34.1167 2.72852 30.2733 2.72852C26.4299 2.72852 23.3142 5.80309 23.3142 9.59577C23.3142 13.3885 26.4299 16.463 30.2733 16.463Z" fill="#FF5B5B"/>
<path d="M31.5052 10.0728V5.80469H29.0406V10.0728H27.3975L30.2729 13.3872L33.1483 10.0728H31.5052Z" fill="white"/>
</svg>
