<svg width="52" height="53" viewBox="0 0 52 53" fill="none" xmlns="http://www.w3.org/2000/svg">
<path d="M25.7275 15.0604C25.3613 15.0604 25.0736 14.7703 25.0736 14.4011V12.7398C25.0736 10.9466 23.635 9.49625 21.8825 9.49625C21.0193 9.49625 20.2346 9.83906 19.6069 10.4456C18.9791 11.0521 18.6652 11.8696 18.6652 12.7398V14.4011C18.6652 14.7703 18.3775 15.0604 18.0113 15.0604C17.6451 15.0604 17.3574 14.7703 17.3574 14.4011V12.7398C17.3574 11.5268 17.8282 10.3928 18.6652 9.52262C19.5284 8.6524 20.6531 8.17773 21.8563 8.17773C24.3412 8.17773 26.3552 10.2082 26.3552 12.7134V14.3747C26.3814 14.7703 26.0937 15.0604 25.7275 15.0604Z" fill="#FFD497"/>
<path d="M36.0069 37.2909H16.9389L13.7739 12.6611H34.6729L36.0069 37.2909Z" fill="#55558A"/>
<path d="M16.9388 37.2909L12.4138 36.4998L7.86255 37.2909L9.22269 12.6611H15.5787L16.9388 37.2909Z" fill="#2D2D5E"/>
<path d="M25.2304 21.1522C22.7455 21.1522 20.7314 19.1217 20.7314 16.6165V14.9552C20.7314 14.586 21.0192 14.2959 21.3854 14.2959C21.7515 14.2959 22.0393 14.586 22.0393 14.9552V16.6165C22.0393 18.4097 23.4779 19.8336 25.2304 19.8336C26.9828 19.8336 28.4476 18.3833 28.4476 16.5901V14.9288C28.4476 14.5596 28.7353 14.2695 29.1015 14.2695C29.4677 14.2695 29.7554 14.5596 29.7554 14.9288V16.5901C29.7554 19.1217 27.7414 21.1522 25.2304 21.1522Z" fill="white"/>
<path opacity="0.1" d="M26.4077 33.9149C26.4077 35.1279 26.7216 36.2882 27.2709 37.2903H36.0333L35.484 27.1641C34.8301 26.9531 34.15 26.8477 33.4438 26.8477C29.5465 26.8477 26.4077 30.0121 26.4077 33.9149Z" fill="#0C1E5B"/>
<path d="M37.0792 40.9821C40.9507 40.9821 44.0892 37.818 44.0892 33.9149C44.0892 30.0118 40.9507 26.8477 37.0792 26.8477C33.2078 26.8477 30.0693 30.0118 30.0693 33.9149C30.0693 37.818 33.2078 40.9821 37.0792 40.9821Z" fill="#FF6966"/>
<path d="M36.3469 36.6578C36.1376 36.6578 35.9545 36.5787 35.7976 36.4205L33.5743 34.179C33.2604 33.8626 33.2604 33.3616 33.5743 33.0715C33.8882 32.755 34.3851 32.755 34.6728 33.0715L36.3469 34.7592L39.4856 31.5948C39.7995 31.2783 40.2965 31.2783 40.5842 31.5948C40.8981 31.9112 40.8981 32.4122 40.5842 32.7023L36.8961 36.4205C36.7392 36.5787 36.53 36.6578 36.3469 36.6578Z" fill="white"/>
</svg>
