<svg width="13" height="12" viewBox="0 0 13 12" fill="none" xmlns="http://www.w3.org/2000/svg">
<rect x="12.4431" y="11.5" width="11" height="11" rx="5.5" transform="rotate(-180 12.4431 11.5)" fill="#2ED6A3" fill-opacity="0.15" stroke="#00A389"/>
<path d="M5.45813 5.89584C5.52432 5.96201 5.61408 5.99918 5.70766 5.99918C5.80125 5.99918 5.89101 5.96201 5.95719 5.89584L6.59002 5.26302L6.59002 7.58749C6.59002 7.68109 6.6272 7.77087 6.69339 7.83706C6.75958 7.90324 6.84935 7.94043 6.94296 7.94043C7.03656 7.94043 7.12633 7.90324 7.19252 7.83706C7.25871 7.77087 7.2959 7.68109 7.2959 7.58749L7.2959 5.26302L7.92872 5.89584C7.99529 5.96013 8.08444 5.99571 8.17698 5.9949C8.26952 5.9941 8.35804 5.95698 8.42348 5.89154C8.48892 5.8261 8.52604 5.73758 8.52684 5.64504C8.52765 5.5525 8.49207 5.46335 8.42778 5.39678L7.19249 4.16149C7.1263 4.09532 7.03654 4.05815 6.94296 4.05815C6.84937 4.05815 6.75961 4.09532 6.69343 4.16149L5.45813 5.39678C5.39197 5.46297 5.3548 5.55272 5.3548 5.64631C5.3548 5.7399 5.39197 5.82965 5.45813 5.89584Z" fill="#00A389"/>
</svg>
